<svg width="32" height="32" viewBox="0 0 28 23" fill="none" xmlns="http://www.w3.org/2000/svg">
  <path d="M10.4904 8.37566C10.4904 7.4881 11.24 6.76859 12.1647 6.76859H24.7222C25.6469 6.76859 26.3965 7.4881 26.3965 8.37566V20.4287C26.3965 21.3162 25.6469 22.0358 24.7222 22.0358H12.1647C11.24 22.0358 10.4904 21.3162 10.4904 20.4287V8.37566Z" fill="#F9D3BC"/>
  <path fill-rule="evenodd" clip-rule="evenodd" d="M12.1647 5.80435H24.7222C26.2017 5.80435 27.4011 6.95556 27.4011 8.37566V20.4287C27.4011 21.8488 26.2017 23 24.7222 23H12.1647C10.6852 23 9.48582 21.8488 9.48582 20.4287V8.37566C9.48582 6.95556 10.6852 5.80435 12.1647 5.80435ZM12.1647 6.76859C11.24 6.76859 10.4904 7.4881 10.4904 8.37566V20.4287C10.4904 21.3162 11.24 22.0358 12.1647 22.0358H24.7222C25.6469 22.0358 26.3965 21.3162 26.3965 20.4287V8.37566C26.3965 7.4881 25.6469 6.76859 24.7222 6.76859H12.1647Z" fill="white"/>
  <path d="M6.23579 8.56532C5.92306 7.73006 6.37499 6.80961 7.24521 6.50944L17.487 2.97665C18.3572 2.67648 19.3162 3.11026 19.6289 3.94552L23.3096 13.776C23.6223 14.6112 23.1704 15.5317 22.3002 15.8318L12.0583 19.3646C11.1881 19.6648 10.2292 19.231 9.91642 18.3958L6.23579 8.56532Z" fill="#FF802B"/>
  <path fill-rule="evenodd" clip-rule="evenodd" d="M6.90546 5.60201L17.1473 2.06922C18.5396 1.58895 20.074 2.28299 20.5743 3.61941L24.255 13.4498C24.7553 14.7863 24.0322 16.259 22.6399 16.7393L12.3981 20.272C11.0057 20.7523 9.47139 20.0583 8.97102 18.7219L5.29039 8.89142C4.79002 7.555 5.51311 6.08228 6.90546 5.60201ZM7.24521 6.50944C6.37499 6.80961 5.92306 7.73006 6.23579 8.56532L9.91642 18.3958C10.2292 19.231 11.1881 19.6648 12.0583 19.3646L22.3002 15.8318C23.1704 15.5317 23.6223 14.6112 23.3096 13.776L19.6289 3.94552C19.3162 3.11026 18.3572 2.67648 17.487 2.97665L7.24521 6.50944Z" fill="white"/>
  <path d="M1.77039 9.65094C1.18846 8.96117 1.29927 7.94921 2.0179 7.39065L9.82506 1.32247C10.5437 0.763911 11.598 0.870273 12.1799 1.56004L18.5021 9.05361C19.084 9.74337 18.9732 10.7553 18.2545 11.3139L10.4474 17.3821C9.72875 17.9406 8.67444 17.8343 8.0925 17.1445L1.77039 9.65094Z" fill="#104345"/>
  <path fill-rule="evenodd" clip-rule="evenodd" d="M1.38569 6.64129L9.19285 0.573113C10.3427 -0.320583 12.0296 -0.150404 12.9607 0.953218L19.2828 8.44679C20.2139 9.55041 20.0366 11.1696 18.8868 12.0633L11.0796 18.1314C9.92979 19.0251 8.24288 18.8549 7.31179 17.7513L0.989674 10.2578C0.0585791 9.15413 0.23588 7.53498 1.38569 6.64129ZM2.0179 7.39065C1.29927 7.94921 1.18846 8.96117 1.77039 9.65094L8.0925 17.1445C8.67444 17.8343 9.72875 17.9406 10.4474 17.3821L18.2545 11.3139C18.9732 10.7553 19.084 9.74337 18.5021 9.05361L12.1799 1.56004C11.598 0.870273 10.5437 0.763911 9.82506 1.32247L2.0179 7.39065Z" fill="white"/>
</svg>
